<?xml version="1.0" encoding="UTF-8"?>
<svg id="Layer_1" data-name="Layer 1" xmlns="http://www.w3.org/2000/svg" xmlns:xlink="http://www.w3.org/1999/xlink" viewBox="0 0 207.96 119.5">
  <defs>
    <style>
      .cls-1 {
        fill: url(#linear-gradient-2);
      }

      .cls-2 {
        fill: none;
        stroke: url(#linear-gradient-6);
        stroke-miterlimit: 10;
      }

      .cls-3 {
        fill: url(#linear-gradient-4);
      }

      .cls-4 {
        fill: #fff;
        isolation: isolate;
        opacity: .3;
      }

      .cls-5 {
        fill: url(#linear-gradient-3);
      }

      .cls-6 {
        fill: url(#linear-gradient-5);
      }

      .cls-7 {
        fill: url(#linear-gradient-8);
      }

      .cls-8 {
        fill: url(#linear-gradient-7);
      }

      .cls-9 {
        fill: url(#linear-gradient);
      }

      .cls-10 {
        clip-path: url(#clippath);
      }
    </style>
    <linearGradient id="linear-gradient" x1="117.41" y1="98.58" x2="207.96" y2="98.58" gradientUnits="userSpaceOnUse">
      <stop offset="0" stop-color="#f9c74f"/>
      <stop offset="1" stop-color="#f7b801"/>
    </linearGradient>
    <linearGradient id="linear-gradient-2" x1="0" y1="101.33" x2="119.13" y2="101.33" gradientUnits="userSpaceOnUse">
      <stop offset="0" stop-color="#43aa8b"/>
      <stop offset="1" stop-color="#2f6e4e"/>
    </linearGradient>
    <linearGradient id="linear-gradient-3" x1="104.69" y1="9.38" x2="112.17" y2="9.38" gradientUnits="userSpaceOnUse">
      <stop offset="0" stop-color="#43aa8b"/>
      <stop offset=".18" stop-color="#42a889"/>
      <stop offset="1" stop-color="#2f6e4e"/>
    </linearGradient>
    <linearGradient id="linear-gradient-4" x1="87.88" y1="39.13" x2="116.99" y2="39.13" xlink:href="#linear-gradient"/>
    <linearGradient id="linear-gradient-5" x1="87.88" y1="39.13" x2="116.99" y2="39.13" xlink:href="#linear-gradient"/>
    <clipPath id="clippath">
      <path class="cls-6" d="M101.21,20.48c1.93-.23,3.88-.05,5.72.57,3.96,1.33,10.05,4.51,10.05,11.47,0,9.93-4.31,17.39-13.18,22.81-2.64,1.61-5.93,2.54-9.03,2.54h0c-2.96,0-4.7-.83-5.3-1.55-.2-.24-.36-.54-.25-1.16.92-4.95-.14-10.05-.85-13.43-.25-1.19-.51-2.43-.51-2.93,0-16.4,12.79-18.26,13.33-18.33h0Z"/>
    </clipPath>
    <linearGradient id="linear-gradient-6" x1="82.87" y1="32.39" x2="122" y2="32.39" xlink:href="#linear-gradient-3"/>
    <linearGradient id="linear-gradient-7" x1="60.67" y1="33.07" x2="78.56" y2="33.07" xlink:href="#linear-gradient-3"/>
    <linearGradient id="linear-gradient-8" x1="126.15" y1="33.07" x2="144.04" y2="33.07" xlink:href="#linear-gradient-3"/>
  </defs>
  <g>
    <path class="cls-9" d="M117.41,111.78l11.87-26.72h6.11l11.99,26.72h-6.49l-9.81-23.59h2.48l-9.81,23.59h-6.34ZM123.41,106.06l1.56-4.69h13.82l1.6,4.69h-16.99ZM156.08,112.09c-1.58,0-2.94-.27-4.08-.82-1.15-.55-2.03-1.29-2.65-2.23-.62-.94-.94-2-.94-3.17s.3-2.26.9-3.19c.6-.93,1.55-1.65,2.84-2.16,1.3-.51,3-.76,5.11-.76h5.42v3.44h-4.81c-1.4,0-2.36.23-2.88.69-.52.46-.78,1.03-.78,1.72,0,.76.3,1.37.9,1.81.6.45,1.41.67,2.42.67s1.93-.23,2.73-.69,1.37-1.16,1.7-2.1l.92,2.79c-.43,1.27-1.22,2.26-2.37,2.96-1.15.7-2.62,1.05-4.43,1.05ZM162.34,111.78v-4.01l-.38-.88v-7.18c0-1.27-.39-2.26-1.16-2.98-.78-.71-1.97-1.07-3.57-1.07-1.09,0-2.17.17-3.23.52-1.06.34-1.97.81-2.73,1.39l-2.1-4.16c1.12-.81,2.47-1.43,4.05-1.85,1.58-.42,3.18-.63,4.81-.63,3.13,0,5.56.74,7.29,2.21,1.73,1.48,2.6,3.78,2.6,6.91v11.72h-5.57ZM199.6,90.94c1.63,0,3.07.32,4.33.97,1.26.65,2.25,1.64,2.96,2.98.71,1.34,1.07,3.05,1.07,5.13v11.76h-5.95v-10.84c0-1.65-.34-2.88-1.01-3.66-.67-.79-1.62-1.18-2.84-1.18-.89,0-1.68.2-2.37.59-.69.39-1.22.98-1.58,1.76-.37.78-.55,1.79-.55,3.03v10.31h-5.96v-10.84c0-1.65-.34-2.88-1.01-3.66-.67-.79-1.65-1.18-2.92-1.18-.87,0-1.64.2-2.33.59-.69.39-1.22.98-1.6,1.76-.38.78-.57,1.79-.57,3.03v10.31h-5.96v-20.54h5.69v5.57l-1.07-1.6c.69-1.4,1.69-2.46,3.02-3.19s2.81-1.09,4.47-1.09c1.88,0,3.54.48,4.96,1.43,1.42.95,2.37,2.41,2.82,4.37l-2.1-.57c.69-1.58,1.78-2.84,3.28-3.8,1.5-.95,3.24-1.43,5.23-1.43Z"/>
    <path class="cls-1" d="M14.47,112.24c-2.06,0-3.98-.34-5.74-1.01-1.77-.67-3.3-1.63-4.6-2.88-1.3-1.25-2.31-2.71-3.03-4.39-.73-1.68-1.09-3.52-1.09-5.53s.36-3.86,1.09-5.53c.73-1.68,1.74-3.14,3.05-4.39,1.31-1.25,2.85-2.21,4.62-2.88,1.77-.67,3.68-1.01,5.74-1.01,2.32,0,4.41.4,6.3,1.2,1.88.8,3.46,1.98,4.73,3.53l-4.01,3.66c-.89-1.04-1.9-1.83-3.03-2.37-1.13-.53-2.36-.8-3.68-.8-1.25,0-2.39.21-3.44.63-1.04.42-1.95,1.01-2.71,1.78-.76.76-1.36,1.67-1.78,2.71-.42,1.04-.63,2.2-.63,3.47s.21,2.43.63,3.47c.42,1.04,1.01,1.95,1.78,2.71s1.67,1.35,2.71,1.77c1.04.42,2.19.63,3.44.63,1.32,0,2.55-.27,3.68-.82,1.13-.55,2.14-1.34,3.03-2.39l4.01,3.66c-1.27,1.55-2.85,2.74-4.73,3.55-1.88.81-4,1.22-6.34,1.22ZM29.24,111.78v-20.54h5.69v5.84l-.8-1.72c.61-1.45,1.59-2.55,2.94-3.3,1.35-.75,2.99-1.13,4.92-1.13v5.53c-.23-.05-.45-.09-.67-.11-.22-.03-.43-.04-.63-.04-1.68,0-3.02.47-4.01,1.41-.99.94-1.49,2.39-1.49,4.35v9.7h-5.95ZM50.54,112.09c-1.58,0-2.94-.27-4.08-.82-1.15-.55-2.03-1.29-2.65-2.23-.62-.94-.94-2-.94-3.17s.3-2.26.9-3.19c.6-.93,1.55-1.65,2.84-2.16,1.3-.51,3-.76,5.11-.76h5.42v3.44h-4.81c-1.4,0-2.36.23-2.88.69-.52.46-.78,1.03-.78,1.72,0,.76.3,1.37.9,1.81.6.45,1.41.67,2.42.67s1.93-.23,2.73-.69,1.37-1.16,1.7-2.1l.92,2.79c-.43,1.27-1.22,2.26-2.37,2.96-1.15.7-2.62,1.05-4.43,1.05ZM56.8,111.78v-4.01l-.38-.88v-7.18c0-1.27-.39-2.26-1.16-2.98-.78-.71-1.97-1.07-3.57-1.07-1.09,0-2.17.17-3.23.52-1.06.34-1.97.81-2.73,1.39l-2.1-4.16c1.12-.81,2.47-1.43,4.05-1.85,1.58-.42,3.18-.63,4.81-.63,3.13,0,5.56.74,7.29,2.21,1.73,1.48,2.6,3.78,2.6,6.91v11.72h-5.57ZM65.31,96.29v-4.58h14.24v4.58h-14.24ZM68.48,111.78v-20.99c0-2.34.69-4.2,2.06-5.57s3.33-2.06,5.88-2.06c.84,0,1.67.09,2.48.27.81.18,1.5.45,2.06.8l-1.56,4.35c-.33-.23-.7-.41-1.11-.53-.41-.13-.84-.19-1.3-.19-.87,0-1.53.24-2,.73-.47.48-.71,1.25-.71,2.29v1.91l.19,2.52v16.49h-5.99ZM80.08,96.29v-4.58h14.24v4.58h-14.24ZM90.92,112.09c-2.42,0-4.3-.62-5.65-1.85-1.35-1.23-2.02-3.07-2.02-5.52v-18.02h5.99v17.9c0,.87.22,1.54.67,2.02.45.48,1.05.73,1.81.73.97,0,1.78-.25,2.44-.76l1.56,4.2c-.59.43-1.3.76-2.16.97-.85.22-1.74.32-2.65.32ZM101.34,119.5c-1.04,0-2.09-.17-3.13-.5-1.04-.33-1.91-.79-2.6-1.37l2.18-4.28c.46.43.99.76,1.58.99s1.2.34,1.81.34c.81,0,1.47-.2,1.97-.59.5-.39.95-1.05,1.35-1.97l1.07-2.52.46-.65,7.41-17.71h5.69l-9.28,21.8c-.66,1.68-1.42,2.98-2.27,3.91-.85.93-1.79,1.58-2.82,1.97-1.03.38-2.17.57-3.42.57ZM104.86,112.59l-9.12-21.34h6.11l7.14,17.22-4.12,4.12Z"/>
  </g>
  <g>
    <path class="cls-5" d="M104.69,12.52c1.01-2.8,4.09-6.02,7.48-6.26-1.21,2-7.48,6.26-7.48,6.26Z"/>
    <g>
      <path class="cls-3" d="M101.21,20.48c1.93-.23,3.88-.05,5.72.57,3.96,1.33,10.05,4.51,10.05,11.47,0,9.93-4.31,17.39-13.18,22.81-2.64,1.61-5.93,2.54-9.03,2.54h0c-2.96,0-4.7-.83-5.3-1.55-.2-.24-.36-.54-.25-1.16.92-4.95-.14-10.05-.85-13.43-.25-1.19-.51-2.43-.51-2.93,0-16.4,12.79-18.26,13.33-18.33h0Z"/>
      <g class="cls-10">
        <ellipse class="cls-4" cx="98.7" cy="28.09" rx="8.12" ry="10.15"/>
      </g>
    </g>
  </g>
  <path class="cls-2" d="M106.11,15.01s11.02-1.15,11.02-12.63c0,0-16.42-3.98-16.42,13.21,0,0-17.34,2.07-17.34,23.2,0,2.76,2.87,10.39,1.55,17.46-1.32,7.06,11.6,8.84,20.61,3.33,9.01-5.51,15.96-13.86,15.96-27.71s-15.39-16.84-15.39-16.84Z"/>
  <path class="cls-8" d="M60.67,30.49c2.9,0,5.25-2.35,5.25-5.25v-15.62C65.93,4.31,70.23,0,75.55,0h1.81C78.02,0,78.56.54,78.56,1.21v3.16c0,.67-.54,1.21-1.21,1.21h-2.5c-1.82,0-3.3,1.48-3.3,3.3v16.09c0,3.16-2.03,7.14-4.86,8.12,2.83.97,4.86,4.96,4.86,8.12v16.09c0,1.82,1.48,3.3,3.3,3.3h2.5c.67,0,1.21.54,1.21,1.21v3.16c0,.67-.54,1.21-1.21,1.21h-1.81c-5.31,0-9.62-4.31-9.62-9.62v-15.62c0-2.9-2.35-5.25-5.25-5.25v-5.17Z"/>
  <path class="cls-7" d="M144.04,33.07v2.58c-2.9,0-5.25,2.35-5.25,5.25v15.62c0,5.31-4.31,9.62-9.62,9.62h-1.81c-.67,0-1.21-.54-1.21-1.21v-3.16c0-.67.54-1.21,1.21-1.21h2.5c1.82,0,3.3-1.48,3.3-3.3v-16.09c0-3.16,2.03-7.14,4.86-8.12-2.83-.97-4.86-4.96-4.86-8.12V8.87c0-1.82-1.48-3.3-3.3-3.3h-2.5c-.67,0-1.21-.54-1.21-1.21V1.21c0-.67.54-1.21,1.21-1.21h1.81c5.31,0,9.62,4.31,9.62,9.62v15.62c0,2.9,2.35,5.25,5.25,5.25v2.58Z"/>
</svg>