<?xml version="1.0" encoding="UTF-8"?>
<svg id="Layer_1" data-name="Layer 1" xmlns="http://www.w3.org/2000/svg" xmlns:xlink="http://www.w3.org/1999/xlink" viewBox="0 0 461.67 366.32">
  <defs>
    <style>
      .cls-1 {
        fill: url(#linear-gradient-2);
      }

      .cls-2 {
        fill: #fff;
        isolation: isolate;
        opacity: .3;
      }

      .cls-3 {
        fill: url(#linear-gradient-4);
      }

      .cls-4 {
        fill: url(#linear-gradient-3);
      }

      .cls-5 {
        fill: #67382c;
      }

      .cls-6 {
        fill: url(#linear-gradient);
      }
    </style>
    <linearGradient id="linear-gradient" x1="99.54" y1="-835.55" x2="305.8" y2="-835.55" gradientTransform="translate(263.66 1025.47) rotate(-16.88) scale(.96 .95) skewX(-.1)" gradientUnits="userSpaceOnUse">
      <stop offset="0" stop-color="#f9c751"/>
      <stop offset="1" stop-color="#f6b819"/>
    </linearGradient>
    <linearGradient id="linear-gradient-2" x1="221.98" y1="56.17" x2="343.35" y2="56.17" gradientUnits="userSpaceOnUse">
      <stop offset="0" stop-color="#43a98b"/>
      <stop offset=".18" stop-color="#43a889"/>
      <stop offset="1" stop-color="#306f4f"/>
    </linearGradient>
    <linearGradient id="linear-gradient-3" x1="0" y1="183.16" x2="99.05" y2="183.16" xlink:href="#linear-gradient-2"/>
    <linearGradient id="linear-gradient-4" x1="362.62" y1="183.16" x2="461.67" y2="183.16" xlink:href="#linear-gradient-2"/>
  </defs>
  <path class="cls-6" d="M219.49,87.23c-18.88-.37-37.73,3.86-54.21,13.13-53.44,30.06-50.56,91.07-36.59,117.49,0,0,21.59,43.39,17.5,75.05-2.79,37.63,37.16,69.37,96.97,31.2,46.88-29.91,75.26-82.11,71.39-136.98-3.65-51.77-33.87-98.68-95.06-99.88Z"/>
  <path class="cls-1" d="M221.98,78.13s22.67,8.3,52.77,7.58c34.89-.84,61.94-26.62,68.6-41.64,0,0-20.05-13.95-46.86-16.94-36.35-4.05-62.74,14.89-74.51,45.14,0,0,21.15-20.44,62.51-11.12,0,0-40.51-2.12-62.51,16.99Z"/>
  <path class="cls-5" d="M206.57,82.46s-4.11-28.2-33.89-34.65c-14.15-5.6-6.8-24.15,7.34-18.54,0,0,31.14,12.01,34.89,50.48l-8.34,2.72Z"/>
  <path class="cls-2" d="M144.81,168.37c.61-12.69,5.74-35.53,32.55-50.96,2.85-1.64,6.45-1.32,8.98.77h0c3.87,3.2,3.82,9.15-.12,12.25-8.45,6.64-20.76,19.51-23.93,39.69-.66,4.22-4.25,7.36-8.51,7.44h0c-5.09.1-9.21-4.11-8.97-9.2Z"/>
  <circle class="cls-2" cx="149.63" cy="200.93" r="8.72"/>
  <g>
    <path class="cls-4" d="M0,168.85c16.07,0,29.1-13.03,29.1-29.1V53.26C29.1,23.85,52.94,0,82.36,0h10.02C96.06,0,99.05,2.99,99.05,6.68v17.49c0,3.69-2.99,6.68-6.68,6.68h-13.83c-10.1,0-18.28,8.19-18.28,18.28v89.09c0,17.49-11.25,39.55-26.9,44.94,15.66,5.39,26.9,27.45,26.9,44.94v89.09c0,10.1,8.19,18.28,18.28,18.28h13.83c3.69,0,6.68,2.99,6.68,6.68v17.49c0,3.69-2.99,6.68-6.68,6.68h-10.02c-29.42,0-53.26-23.85-53.26-53.26v-86.49c0-16.07-13.03-29.1-29.1-29.1v-28.62Z"/>
    <path class="cls-3" d="M461.67,183.16v14.31c-16.07,0-29.1,13.03-29.1,29.1v86.49c0,29.42-23.85,53.26-53.26,53.26h-10.02c-3.69,0-6.68-2.99-6.68-6.68v-17.49c0-3.69,2.99-6.68,6.68-6.68h13.83c10.1,0,18.28-8.19,18.28-18.28v-89.09c0-17.49,11.25-39.55,26.9-44.94-15.66-5.39-26.9-27.45-26.9-44.94V49.13c0-10.1-8.19-18.28-18.28-18.28h-13.83c-3.69,0-6.68-2.99-6.68-6.68V6.68c0-3.69,2.99-6.68,6.68-6.68h10.02c29.42,0,53.26,23.85,53.26,53.26v86.49c0,16.07,13.03,29.1,29.1,29.1v14.31Z"/>
  </g>
</svg>