<?xml version="1.0" encoding="UTF-8"?>
<svg id="Layer_1" data-name="Layer 1" xmlns="http://www.w3.org/2000/svg" xmlns:xlink="http://www.w3.org/1999/xlink" viewBox="0 0 820.8 143.43">
  <defs>
    <style>
      .cls-1 {
        fill: url(#linear-gradient-2);
      }

      .cls-2 {
        fill: url(#linear-gradient-10);
      }

      .cls-3 {
        fill: url(#linear-gradient-4);
      }

      .cls-4 {
        fill: url(#linear-gradient-3);
      }

      .cls-5 {
        fill: url(#linear-gradient-5);
      }

      .cls-6 {
        fill: url(#linear-gradient-8);
      }

      .cls-7 {
        fill: url(#linear-gradient-7);
      }

      .cls-8 {
        fill: url(#linear-gradient-9);
      }

      .cls-9 {
        fill: url(#linear-gradient-6);
      }

      .cls-10 {
        fill: url(#linear-gradient);
      }
    </style>
    <linearGradient id="linear-gradient" x1="463.43" y1="60.87" x2="820.8" y2="60.87" gradientUnits="userSpaceOnUse">
      <stop offset="0" stop-color="#f9c751"/>
      <stop offset="1" stop-color="#f6b819"/>
    </linearGradient>
    <linearGradient id="linear-gradient-2" x1="0" y1="60.26" x2="100.79" y2="60.26" gradientUnits="userSpaceOnUse">
      <stop offset="0" stop-color="#43a98b"/>
      <stop offset="1" stop-color="#306f4f"/>
    </linearGradient>
    <linearGradient id="linear-gradient-3" x1="115.41" y1="71.87" x2="165.73" y2="71.87" xlink:href="#linear-gradient-2"/>
    <linearGradient id="linear-gradient-4" x1="169.19" y1="89.87" x2="226.29" y2="89.87" xlink:href="#linear-gradient-2"/>
    <linearGradient id="linear-gradient-5" x1="172.21" y1="71.87" x2="246.18" y2="71.87" xlink:href="#linear-gradient-2"/>
    <linearGradient id="linear-gradient-6" x1="270.28" y1="56.5" x2="319.55" y2="56.5" xlink:href="#linear-gradient-2"/>
    <linearGradient id="linear-gradient-7" x1="257.78" y1="42.79" x2="372.28" y2="42.79" xlink:href="#linear-gradient-2"/>
    <linearGradient id="linear-gradient-8" x1="328.59" y1="64.11" x2="377.86" y2="64.11" xlink:href="#linear-gradient-2"/>
    <linearGradient id="linear-gradient-9" x1="377.41" y1="87.69" x2="470.21" y2="87.69" xlink:href="#linear-gradient-2"/>
    <linearGradient id="linear-gradient-10" x1="377.86" y1="74.05" x2="430.14" y2="74.05" xlink:href="#linear-gradient-2"/>
  </defs>
  <path class="cls-10" d="M463.43,113L510.29,7.53h24.11l47.31,105.46h-25.61l-38.72-93.11h9.79l-38.72,93.11h-25.01ZM487.09,90.4l6.18-18.53h54.54l6.33,18.53h-67.04ZM616.05,114.2c-6.23,0-11.6-1.08-16.12-3.24-4.52-2.16-8.01-5.1-10.47-8.81-2.46-3.72-3.69-7.88-3.69-12.51s1.18-8.91,3.54-12.58c2.36-3.67,6.1-6.5,11.22-8.51,5.12-2.01,11.85-3.01,20.19-3.01h21.39v13.56h-18.98c-5.52,0-9.32.9-11.37,2.71-2.06,1.81-3.09,4.07-3.09,6.78,0,3.01,1.18,5.4,3.54,7.16,2.36,1.76,5.55,2.64,9.57,2.64s7.61-.9,10.77-2.71,5.4-4.57,6.71-8.29l3.62,11c-1.71,5.02-4.82,8.91-9.34,11.68-4.52,2.76-10.35,4.14-17.48,4.14ZM640.76,113v-15.82l-1.51-3.46v-28.32c0-5.02-1.53-8.94-4.6-11.75-3.07-2.81-7.76-4.22-14.09-4.22-4.32,0-8.56.68-12.73,2.03-4.17,1.36-7.76,3.19-10.77,5.5l-8.29-16.42c4.42-3.21,9.74-5.65,15.97-7.31,6.23-1.66,12.55-2.49,18.98-2.49,12.35,0,21.94,2.91,28.77,8.74,6.83,5.83,10.25,14.92,10.25,27.27v46.25h-22ZM787.81,30.73c6.43,0,12.13,1.28,17.1,3.84,4.97,2.56,8.86,6.48,11.68,11.75,2.81,5.27,4.22,12.03,4.22,20.26v46.4h-23.5v-42.79c0-6.53-1.33-11.35-3.99-14.46-2.66-3.11-6.4-4.67-11.22-4.67-3.52,0-6.63.78-9.34,2.34-2.71,1.56-4.8,3.87-6.25,6.93-1.46,3.06-2.18,7.06-2.18,11.98v40.68h-23.5v-42.79c0-6.53-1.33-11.35-3.99-14.46-2.66-3.11-6.51-4.67-11.53-4.67-3.41,0-6.48.78-9.19,2.34-2.71,1.56-4.82,3.87-6.33,6.93-1.51,3.06-2.26,7.06-2.26,11.98v40.68h-23.5V31.94h22.45v22l-4.22-6.33c2.71-5.52,6.68-9.72,11.9-12.58,5.22-2.86,11.1-4.29,17.63-4.29,7.43,0,13.96,1.88,19.59,5.65,5.62,3.77,9.34,9.52,11.15,17.25l-8.29-2.26c2.71-6.23,7.03-11.22,12.96-14.99,5.92-3.77,12.81-5.65,20.64-5.65Z"/>
  <path class="cls-1" d="M57.1,114.8c-8.14,0-15.7-1.33-22.67-3.99-6.98-2.66-13.03-6.45-18.15-11.37-5.12-4.92-9.11-10.7-11.98-17.33-2.86-6.63-4.29-13.91-4.29-21.85s1.43-15.22,4.29-21.85c2.86-6.63,6.88-12.4,12.05-17.33,5.17-4.92,11.25-8.71,18.23-11.37,6.98-2.66,14.54-3.99,22.67-3.99,9.14,0,17.42,1.58,24.86,4.75,7.43,3.16,13.66,7.81,18.68,13.94l-15.82,14.46c-3.52-4.12-7.51-7.23-11.98-9.34-4.47-2.11-9.32-3.16-14.54-3.16-4.92,0-9.44.83-13.56,2.49-4.12,1.66-7.68,3.99-10.7,7.01-3.01,3.01-5.35,6.58-7.01,10.7-1.66,4.12-2.49,8.69-2.49,13.71s.83,9.59,2.49,13.71c1.66,4.12,3.99,7.68,7.01,10.7s6.58,5.35,10.7,7c4.12,1.66,8.64,2.49,13.56,2.49,5.22,0,10.07-1.08,14.54-3.24,4.47-2.16,8.46-5.3,11.98-9.42l15.82,14.46c-5.02,6.13-11.25,10.8-18.68,14.01-7.43,3.21-15.77,4.82-25.01,4.82Z"/>
  <path class="cls-4" d="M115.41,113V31.94h22.45v23.05l-3.16-6.78c2.41-5.72,6.28-10.07,11.6-13.03,5.32-2.96,11.8-4.44,19.43-4.44v21.85c-.9-.2-1.78-.35-2.64-.45-.85-.1-1.68-.15-2.49-.15-6.63,0-11.9,1.86-15.82,5.57-3.92,3.72-5.88,9.44-5.88,17.17v38.27h-23.5Z"/>
  <path class="cls-3" d="M199.48,114.2c-6.23,0-11.6-1.08-16.12-3.24-4.52-2.16-8.01-5.1-10.47-8.81-2.46-3.72-3.69-7.88-3.69-12.51s1.18-8.91,3.54-12.58c2.36-3.67,6.1-6.5,11.22-8.51,5.12-2.01,11.85-3.01,20.19-3.01h21.39v13.56h-18.98c-5.52,0-9.32.9-11.37,2.71-2.06,1.81-3.09,4.07-3.09,6.78,0,3.01,1.18,5.4,3.54,7.16,2.36,1.76,5.55,2.64,9.57,2.64s7.61-.9,10.77-2.71,5.4-4.57,6.71-8.29l3.62,11c-1.71,5.02-4.82,8.91-9.34,11.68-4.52,2.76-10.35,4.14-17.48,4.14Z"/>
  <path class="cls-5" d="M224.18,113v-15.82l-1.51-3.46v-28.32c0-5.02-1.53-8.94-4.6-11.75-3.07-2.81-7.76-4.22-14.09-4.22-4.32,0-8.56.68-12.73,2.03-4.17,1.36-7.76,3.19-10.77,5.5l-8.29-16.42c4.42-3.21,9.74-5.65,15.97-7.31,6.23-1.66,12.55-2.49,18.98-2.49,12.35,0,21.94,2.91,28.77,8.74,6.83,5.83,10.25,14.92,10.25,27.27v46.25h-22Z"/>
  <path class="cls-9" d="M319.55,4.22l-6.18,17.17c-1.31-.9-2.76-1.61-4.37-2.11-1.61-.5-3.31-.75-5.12-.75-3.42,0-6.05.96-7.91,2.86-1.86,1.91-2.79,4.92-2.79,9.04v7.53l.75,9.94v65.09h-23.65V30.13c0-9.24,2.71-16.57,8.14-22,5.42-5.42,13.16-8.14,23.2-8.14"/>
  <polygon class="cls-7" points="316.09 33.75 257.78 33.75 257.78 51.83 316.09 51.83 372.28 51.83 372.28 33.75 316.09 33.75"/>
  <path class="cls-6" d="M358.87,114.2c-9.54,0-16.98-2.43-22.3-7.31-5.33-4.87-7.98-12.13-7.98-21.77V14.01h23.65v70.66c0,3.42.88,6.08,2.64,7.98,1.76,1.91,4.14,2.86,7.16,2.86,3.81,0,7.03-1,9.64-3.01l6.18,16.57c-2.31,1.71-5.15,2.99-8.51,3.84-3.37.85-6.86,1.28-10.47,1.28Z"/>
  <path class="cls-8" d="M400,143.43c-4.12,0-8.24-.65-12.36-1.96-4.12-1.31-7.53-3.12-10.24-5.42l8.59-16.87c1.81,1.71,3.89,3.01,6.25,3.92s4.75,1.36,7.16,1.36c3.21,0,5.8-.78,7.76-2.34,1.96-1.56,3.74-4.14,5.35-7.76l4.22-9.94,1.81-2.56,29.23-69.91h22.45l-36.61,86.03c-2.61,6.63-5.6,11.78-8.96,15.44-3.37,3.67-7.08,6.25-11.15,7.76-4.07,1.51-8.56,2.26-13.48,2.26Z"/>
  <polygon class="cls-2" points="413.87 116.16 377.86 31.94 401.96 31.94 430.14 99.89 413.87 116.16"/>
</svg>