<?xml version="1.0" encoding="UTF-8"?>
<svg id="Layer_1" data-name="Layer 1" xmlns="http://www.w3.org/2000/svg" xmlns:xlink="http://www.w3.org/1999/xlink" viewBox="0 0 2595.97 1471.46">
  <defs>
    <style>
      .cls-1 {
        fill: url(#linear-gradient-2);
      }

      .cls-2 {
        fill: #fff;
        isolation: isolate;
        opacity: .3;
      }

      .cls-3 {
        fill: url(#linear-gradient-4);
      }

      .cls-4 {
        fill: url(#linear-gradient-3);
      }

      .cls-5 {
        fill: url(#linear-gradient-5);
      }

      .cls-6 {
        fill: #67382c;
      }

      .cls-7 {
        fill: url(#linear-gradient-7);
      }

      .cls-8 {
        fill: url(#linear-gradient-6);
      }

      .cls-9 {
        fill: url(#linear-gradient);
      }
    </style>
    <linearGradient id="linear-gradient" x1="1112.29" y1="-243.21" x2="1582.21" y2="-243.21" gradientTransform="translate(101.67 1072.61) rotate(-16.88) scale(.96 .95) skewX(-.1)" gradientUnits="userSpaceOnUse">
      <stop offset="0" stop-color="#f9c751"/>
      <stop offset="1" stop-color="#f6b819"/>
    </linearGradient>
    <linearGradient id="linear-gradient-2" x1="1277.8" y1="127.97" x2="1554.32" y2="127.97" gradientUnits="userSpaceOnUse">
      <stop offset="0" stop-color="#43a98b"/>
      <stop offset=".18" stop-color="#43a889"/>
      <stop offset="1" stop-color="#306f4f"/>
    </linearGradient>
    <linearGradient id="linear-gradient-3" x1="772.08" y1="417.28" x2="997.74" y2="417.28" xlink:href="#linear-gradient-2"/>
    <linearGradient id="linear-gradient-4" x1="1598.23" y1="417.28" x2="1823.9" y2="417.28" xlink:href="#linear-gradient-2"/>
    <linearGradient id="linear-gradient-5" x1="1465.71" y1="1210.34" x2="2595.97" y2="1210.34" gradientUnits="userSpaceOnUse">
      <stop offset="0" stop-color="#f6b819"/>
      <stop offset="1" stop-color="#f9c751"/>
    </linearGradient>
    <linearGradient id="linear-gradient-6" x1="0" y1="1244.65" x2="1487.16" y2="1244.65" gradientUnits="userSpaceOnUse">
      <stop offset="0" stop-color="#43a98b"/>
      <stop offset="1" stop-color="#306f4f"/>
    </linearGradient>
    <linearGradient id="linear-gradient-7" x1="815.29" y1="1153.16" x2="1177.44" y2="1153.16" xlink:href="#linear-gradient-6"/>
  </defs>
  <g>
    <path class="cls-9" d="M1272.13,198.73c-43.01-.84-85.96,8.79-123.51,29.91-121.74,68.49-115.18,207.49-83.36,267.67,0,0,49.18,98.85,39.87,170.97-6.37,85.74,84.65,158.04,220.93,71.08,106.8-68.15,171.45-187.07,162.64-312.08-8.32-117.96-77.16-224.83-216.57-227.56Z"/>
    <path class="cls-1" d="M1277.8,178.01s51.66,18.9,120.22,17.26c79.49-1.9,141.13-60.64,156.29-94.87,0,0-45.67-31.78-106.77-38.59-82.82-9.23-142.94,33.92-169.75,102.85,0,0,48.19-46.57,142.41-25.34,0,0-92.3-4.82-142.41,38.7Z"/>
    <path class="cls-6" d="M1242.71,187.88s-9.35-64.24-77.22-78.94c-32.23-12.77-15.5-55.01,16.73-42.25,0,0,70.94,27.37,79.5,115l-19.01,6.19Z"/>
    <path class="cls-2" d="M1101.99,383.6c1.38-28.9,13.09-80.94,74.15-116.11,6.5-3.74,14.69-3.02,20.47,1.76h0c8.81,7.29,8.71,20.84-.28,27.91-19.25,15.14-47.3,44.44-54.52,90.43-1.51,9.61-9.67,16.77-19.4,16.95h0c-11.59.22-20.98-9.37-20.43-20.95Z"/>
    <circle class="cls-2" cx="1112.97" cy="457.76" r="19.87"/>
    <g>
      <path class="cls-4" d="M772.08,384.68c36.61,0,66.29-29.68,66.29-66.29V121.35C838.37,54.33,892.69,0,959.71,0h22.82C990.93,0,997.74,6.81,997.74,15.21v39.84c0,8.4-6.81,15.21-15.21,15.21h-31.51c-23.01,0-41.66,18.65-41.66,41.66v202.97c0,39.84-25.62,90.1-61.29,102.39,35.67,12.29,61.29,62.55,61.29,102.39v202.97c0,23.01,18.65,41.66,41.66,41.66h31.51c8.4,0,15.21,6.81,15.21,15.21v39.84c0,8.4-6.81,15.21-15.21,15.21h-22.82c-67.02,0-121.35-54.33-121.35-121.35v-197.05c0-36.61-29.68-66.29-66.29-66.29v-65.2Z"/>
      <path class="cls-3" d="M1823.9,417.28v32.6c-36.61,0-66.29,29.68-66.29,66.29v197.05c0,67.02-54.33,121.35-121.35,121.35h-22.82c-8.4,0-15.21-6.81-15.21-15.21v-39.84c0-8.4,6.81-15.21,15.21-15.21h31.51c23.01,0,41.66-18.65,41.66-41.66v-202.97c0-39.84,25.62-90.1,61.29-102.39-35.67-12.29-61.29-62.55-61.29-102.39V111.93c0-23.01-18.65-41.66-41.66-41.66h-31.51c-8.4,0-15.21-6.81-15.21-15.21V15.21c0-8.4,6.81-15.21,15.21-15.21h22.82c67.02,0,121.35,54.33,121.35,121.35v197.05c0,36.61,29.68,66.29,66.29,66.29v32.6Z"/>
    </g>
  </g>
  <g>
    <path class="cls-5" d="M1758.77,1375.2h81l-149.62-333.55h-76.24l-148.19,333.55h79.1l29.72-71.48h154.5l29.72,71.48ZM1598.91,1245.12l52.88-127.16,52.88,127.16h-105.76ZM2063.72,1142.67c-21.6-18.42-51.94-27.64-91.01-27.64-20.34,0-40.35,2.62-60.04,7.86-19.7,5.24-36.54,12.95-50.5,23.11l26.21,51.94c9.53-7.3,20.88-13.1,34.07-17.39,13.18-4.29,26.6-6.43,40.26-6.43,20.01,0,34.86,4.45,44.55,13.34,9.68,8.9,14.53,21.29,14.53,37.17v.47h-58.61c-26.37,0-47.65,3.18-63.85,9.53-16.2,6.36-28.04,15.33-35.5,26.92-7.47,11.6-11.2,24.86-11.2,39.79s3.89,27.8,11.67,39.55c7.78,11.75,18.82,21.05,33.12,27.87,14.29,6.83,31.28,10.24,50.98,10.24,22.55,0,40.98-4.36,55.27-13.1,9.66-5.9,17.27-13.44,22.87-22.6v31.89h69.57v-146.28c0-39.07-10.81-67.82-32.4-86.25ZM2000.59,1320.41c-10.01,5.72-21.37,8.58-34.07,8.58s-22.8-2.78-30.26-8.34c-7.47-5.56-11.2-13.1-11.2-22.64,0-8.58,3.26-15.72,9.77-21.44,6.51-5.72,18.5-8.58,35.97-8.58h50.99v26.21c-4.13,11.75-11.2,20.49-21.21,26.21ZM2595.97,1228.44v146.76h-74.33v-135.33c0-20.65-4.21-35.89-12.63-45.74-8.42-9.84-20.25-14.77-35.5-14.77-11.12,0-20.96,2.46-29.54,7.39-8.58,4.93-15.18,12.23-19.78,21.92-4.6,9.69-6.91,22.32-6.91,37.88v128.65h-74.34v-135.33c0-20.65-4.21-35.89-12.62-45.74-8.42-9.84-20.58-14.77-36.46-14.77-10.8,0-20.49,2.46-29.07,7.39-8.58,4.93-15.24,12.23-20.01,21.92-4.76,9.69-7.14,22.32-7.14,37.88v128.65h-74.34v-256.36h71v29.27c6.82-7.86,14.92-14.36,24.3-19.5,16.52-9.05,35.1-13.58,55.75-13.58,23.51,0,44.15,5.96,61.95,17.87,9.36,6.27,17.03,14.29,23.05,24.03,7.36-9.26,16.35-17.27,26.99-24.03,18.74-11.91,40.5-17.87,65.28-17.87,20.32,0,38.36,4.05,54.09,12.15,15.72,8.1,28.03,20.49,36.93,37.17,8.89,16.68,13.34,38.04,13.34,64.09Z"/>
    <path class="cls-8" d="M180.59,1380.92c-25.73,0-49.64-4.22-71.71-12.63-22.08-8.41-41.22-20.41-57.42-35.97-16.2-15.56-28.83-33.83-37.88-54.8-9.05-20.96-13.58-43.99-13.58-69.09s4.53-48.13,13.58-69.09c9.05-20.96,21.75-39.23,38.12-54.8,16.36-15.56,35.57-27.55,57.66-35.97,22.08-8.41,45.98-12.63,71.71-12.63,28.9,0,55.11,5,78.62,15.01,23.51,10.01,43.2,24.71,59.09,44.08l-50.03,45.74c-11.12-13.02-23.75-22.87-37.88-29.54-14.14-6.67-29.47-10.01-45.98-10.01-15.57,0-29.86,2.62-42.89,7.86-13.03,5.24-24.3,12.63-33.83,22.16-9.53,9.53-16.92,20.81-22.16,33.83-5.24,13.03-7.86,27.48-7.86,43.36s2.62,30.34,7.86,43.36c5.24,13.03,12.63,24.3,22.16,33.83,9.53,9.53,20.8,16.91,33.83,22.15,13.02,5.24,27.32,7.86,42.89,7.86,16.51,0,31.84-3.41,45.98-10.24,14.13-6.83,26.76-16.75,37.88-29.78l50.03,45.74c-15.89,19.38-35.58,34.15-59.09,44.32-23.51,10.16-49.87,15.25-79.1,15.25ZM462.69,1129.09c-10.79,6.01-19.68,13.82-26.69,23.41v-33.65h-71v256.36h74.33v-121.03c0-24.46,6.2-42.57,18.58-54.32,12.39-11.75,29.07-17.63,50.03-17.63,2.54,0,5.16.16,7.86.48,2.7.32,5.48.8,8.34,1.43v-69.09c-24.14,0-44.63,4.69-61.46,14.06ZM746.2,1142.67c-21.6-18.42-51.94-27.64-91.01-27.64-20.34,0-40.35,2.62-60.04,7.86-19.7,5.24-36.54,12.95-50.5,23.11l26.21,51.94c9.53-7.3,20.88-13.1,34.07-17.39,13.18-4.29,26.6-6.43,40.26-6.43,20.01,0,34.86,4.45,44.55,13.34,9.68,8.9,14.53,21.29,14.53,37.17v.47h-58.61c-26.37,0-47.65,3.18-63.85,9.53-16.2,6.36-28.04,15.33-35.5,26.92-7.47,11.6-11.2,24.86-11.2,39.79s3.89,27.8,11.67,39.55c7.78,11.75,18.82,21.05,33.12,27.87,14.29,6.83,31.28,10.24,50.98,10.24,22.55,0,40.98-4.36,55.27-13.1,9.66-5.9,17.27-13.44,22.87-22.6v31.89h69.57v-146.28c0-39.07-10.81-67.82-32.4-86.25ZM683.07,1320.41c-10.01,5.72-21.37,8.58-34.07,8.58s-22.8-2.78-30.26-8.34c-7.47-5.56-11.2-13.1-11.2-22.64,0-8.58,3.26-15.72,9.77-21.44,6.51-5.72,18.5-8.58,35.97-8.58h50.99v26.21c-4.13,11.75-11.2,20.49-21.21,26.21ZM854.84,1375.2v-262.08c0-29.22,8.58-52.42,25.73-69.57,17.15-17.15,41.62-25.73,73.38-25.73,10.48,0,20.8,1.12,30.97,3.34,10.16,2.23,18.74,5.56,25.73,10.01l-19.53,54.32c-4.13-2.86-8.74-5.08-13.82-6.67-5.09-1.59-10.48-2.38-16.2-2.38-10.81,0-19.14,3.02-25.02,9.05-5.88,6.04-8.82,15.57-8.82,28.59v23.82l2.38,31.45v205.85h-74.81ZM1135.02,1379.02c-30.18,0-53.69-7.7-70.52-23.11-16.84-15.4-25.25-38.36-25.25-68.85v-224.91h74.81v223.48c0,10.8,2.78,19.22,8.34,25.25,5.56,6.04,13.11,9.05,22.64,9.05,12.07,0,22.23-3.17,30.49-9.53l19.53,52.42c-7.31,5.4-16.28,9.46-26.92,12.15-10.65,2.7-21.68,4.05-33.12,4.05ZM1416.16,1118.85l-72.73,173.96-72.12-173.96h-76.24l110.51,258.48-.92,2.17c-5.08,11.44-10.72,19.61-16.91,24.54-6.2,4.92-14.37,7.39-24.54,7.39-7.63,0-15.18-1.43-22.64-4.29-7.46-2.86-14.06-6.99-19.77-12.39l-27.16,53.37c8.58,7.3,19.37,13.02,32.4,17.16,13.03,4.13,26.05,6.2,39.08,6.2,15.56,0,29.78-2.39,42.64-7.15,12.87-4.77,24.62-12.95,35.26-24.54,10.64-11.6,20.09-27.88,28.35-48.84l115.8-272.08h-71Z"/>
    <rect class="cls-7" x="815.29" y="1124.57" width="362.14" height="57.18"/>
  </g>
</svg>