<?xml version="1.0" encoding="UTF-8"?>
<svg id="Layer_1" data-name="Layer 1" xmlns="http://www.w3.org/2000/svg" xmlns:xlink="http://www.w3.org/1999/xlink" viewBox="0 0 388.08 307.92">
  <defs>
    <style>
      .cls-1 {
        fill: url(#linear-gradient-2);
      }

      .cls-2 {
        fill: url(#linear-gradient-4);
      }

      .cls-3 {
        fill: #fff;
        isolation: isolate;
        opacity: .3;
      }

      .cls-4 {
        fill: url(#linear-gradient-3);
      }

      .cls-5 {
        fill: url(#linear-gradient-5);
      }

      .cls-6 {
        fill: url(#linear-gradient);
      }

      .cls-7 {
        clip-path: url(#clippath);
      }
    </style>
    <linearGradient id="linear-gradient" x1="204.91" y1="43.69" x2="239.72" y2="43.69" gradientUnits="userSpaceOnUse">
      <stop offset="0" stop-color="#43a98b"/>
      <stop offset=".18" stop-color="#43a889"/>
      <stop offset="1" stop-color="#306f4f"/>
    </linearGradient>
    <linearGradient id="linear-gradient-2" x1="126.64" y1="182.15" x2="262.16" y2="182.15" gradientUnits="userSpaceOnUse">
      <stop offset="0" stop-color="#f9c751"/>
      <stop offset="1" stop-color="#f6b819"/>
    </linearGradient>
    <clipPath id="clippath">
      <path class="cls-1" d="M188.7,95.33c8.97-1.07,18.09-.22,26.65,2.66,18.43,6.21,46.81,20.98,46.81,53.39,0,46.23-20.06,80.97-61.34,106.2-12.29,7.52-27.62,11.83-42.05,11.83h0c-13.78,0-21.89-3.88-24.65-7.21-.91-1.1-1.68-2.52-1.14-5.41,4.31-23.02-.67-46.78-3.96-62.51-1.16-5.56-2.37-11.31-2.37-13.62,0-76.35,59.53-85,62.07-85.33h0Z"/>
    </clipPath>
    <linearGradient id="linear-gradient-3" x1="102.66" y1="150.79" x2="286.14" y2="150.79" xlink:href="#linear-gradient"/>
    <linearGradient id="linear-gradient-4" x1="0" y1="153.96" x2="83.26" y2="153.96" xlink:href="#linear-gradient"/>
    <linearGradient id="linear-gradient-5" x1="304.82" y1="153.96" x2="388.08" y2="153.96" xlink:href="#linear-gradient"/>
  </defs>
  <g>
    <path class="cls-6" d="M204.91,58.27c4.69-13.05,19.02-28.03,34.81-29.16-5.64,9.33-34.81,29.16-34.81,29.16Z"/>
    <g>
      <path class="cls-1" d="M188.7,95.33c8.97-1.07,18.09-.22,26.65,2.66,18.43,6.21,46.81,20.98,46.81,53.39,0,46.23-20.06,80.97-61.34,106.2-12.29,7.52-27.62,11.83-42.05,11.83h0c-13.78,0-21.89-3.88-24.65-7.21-.91-1.1-1.68-2.52-1.14-5.41,4.31-23.02-.67-46.78-3.96-62.51-1.16-5.56-2.37-11.31-2.37-13.62,0-76.35,59.53-85,62.07-85.33h0Z"/>
      <g class="cls-7">
        <ellipse class="cls-3" cx="177.03" cy="130.76" rx="37.81" ry="47.27"/>
      </g>
    </g>
  </g>
  <path class="cls-4" d="M154.93,295.44c-13.36,0-25.52-2.88-34.13-8.81-8.93-6.15-12.79-15.18-10.88-25.41,4.12-22.03-.75-45.24-4.3-62.2-1.66-7.93-2.97-14.19-2.97-18.51,0-52.07,22.62-79.48,41.6-93.31,16.53-12.04,32.91-16.07,39.15-17.24.48-23.5,7.65-40.85,21.33-51.61,23.52-18.5,57.37-10.57,58.8-10.23l2.29.56v2.36c0,28.99-14.72,44.28-27.07,51.99-5.39,3.37-10.75,5.61-15.26,7.08,6.9,2.36,16.15,6.23,25.45,12.22,24.33,15.68,37.19,38.47,37.19,65.92,0,57.37-24.78,100.41-75.74,131.57-16.77,10.25-37.24,15.6-55.47,15.6ZM244.73,12.22c-10.99,0-25.17,2.09-36.32,10.88-12.63,9.95-19.04,26.58-19.04,49.43v2.66l-2.65.32c-.19.02-19.85,2.55-39.17,16.71-25.82,18.93-38.91,48.63-38.91,88.3,0,3.7,1.32,9.99,2.84,17.28,3.65,17.44,8.66,41.34,4.32,64.53-1.49,7.99,1.33,14.5,8.38,19.37,16.27,11.21,53.53,11.08,83.06-6.98,49.04-29.98,72.87-71.35,72.87-126.46,0-25.6-11.54-46.05-34.29-60.77-17.22-11.14-34.75-14.66-34.92-14.69l-19.7-3.85,19.96-2.08c.21-.02,12.51-1.43,24.57-9.03,15.34-9.67,23.42-24.58,24.03-44.33-2.94-.52-8.42-1.28-15.06-1.28Z"/>
  <path class="cls-2" d="M0,141.93c13.51,0,24.46-10.95,24.46-24.46V44.77C24.46,20.05,44.5,0,69.23,0h8.42C80.75,0,83.26,2.51,83.26,5.61v14.7c0,3.1-2.51,5.61-5.61,5.61h-11.63c-8.49,0-15.37,6.88-15.37,15.37v74.89c0,14.7-9.45,33.24-22.61,37.78,13.16,4.53,22.61,23.08,22.61,37.78v74.89c0,8.49,6.88,15.37,15.37,15.37h11.63c3.1,0,5.61,2.51,5.61,5.61v14.7c0,3.1-2.51,5.61-5.61,5.61h-8.42c-24.73,0-44.77-20.05-44.77-44.77v-72.7c0-13.51-10.95-24.46-24.46-24.46v-24.06Z"/>
  <path class="cls-5" d="M388.08,153.96v12.03c-13.51,0-24.46,10.95-24.46,24.46v72.7c0,24.73-20.05,44.77-44.77,44.77h-8.42c-3.1,0-5.61-2.51-5.61-5.61v-14.7c0-3.1,2.51-5.61,5.61-5.61h11.63c8.49,0,15.37-6.88,15.37-15.37v-74.89c0-14.7,9.45-33.24,22.61-37.78-13.16-4.53-22.61-23.08-22.61-37.78V41.3c0-8.49-6.88-15.37-15.37-15.37h-11.63c-3.1,0-5.61-2.51-5.61-5.61V5.61c0-3.1,2.51-5.61,5.61-5.61h8.42c24.73,0,44.77,20.05,44.77,44.77v72.7c0,13.51,10.95,24.46,24.46,24.46v12.03Z"/>
</svg>